Coordinates
version=1
nRows=44
nColumns=8
inDegrees=no

Units are S.I. units (second, meters, Newtons, ...)
Angles are in radians.

endheader
time	ra_sh_e_f	ra_sh_ad_ab	ra_sh_ext_int	elbow_flexion	ra_wr_e_f	ra_wr_s_p	ra_wr_ad_ab
      0.62916667	     -0.94626200	      0.10709600	      0.17468500	      0.66014000	     -0.15391000	     -0.13807500	     -0.54361400
      0.63125000	     -0.94609400	      0.10720600	      0.17473300	      0.66048500	     -0.15385000	     -0.13814200	     -0.54198700
      0.63333333	     -0.94630800	      0.10718000	      0.17458900	      0.66018500	     -0.15353900	     -0.13780300	     -0.54238600
      0.63541667	     -0.94628600	      0.10728800	      0.17503800	      0.66035000	     -0.15378800	     -0.13807200	     -0.54280400
      0.63750000	     -0.94625800	      0.10739600	      0.17514900	      0.66053100	     -0.15386000	     -0.13832600	     -0.54308900
      0.63958333	     -0.94634600	      0.10725300	      0.17497400	      0.66028600	     -0.15364600	     -0.13830500	     -0.54283100
      0.64166667	     -0.94618700	      0.10728200	      0.17490900	      0.66074000	     -0.15382500	     -0.13817100	     -0.54296800
      0.64375000	     -0.94626700	      0.10733600	      0.17499500	      0.66071400	     -0.15392400	     -0.13818400	     -0.54359400
      0.64583333	     -0.94641500	      0.10730700	      0.17525900	      0.66042600	     -0.15361300	     -0.13841600	     -0.54281800
      0.64791667	     -0.94629400	      0.10743100	      0.17531200	      0.66097000	     -0.15405900	     -0.13848500	     -0.54299500
      0.65000000	     -0.94650900	      0.10738100	      0.17536800	      0.66060400	     -0.15360600	     -0.13829600	     -0.54369000
      0.65208333	     -0.94629300	      0.10735600	      0.17520300	      0.66094200	     -0.15398300	     -0.13847700	     -0.54253100
      0.65416667	     -0.94635600	      0.10759800	      0.17562800	      0.66109100	     -0.15393500	     -0.13847400	     -0.54345100
      0.65625000	     -0.94635100	      0.10746200	      0.17556200	      0.66105900	     -0.15384800	     -0.13863000	     -0.54343100
      0.65833333	     -0.94635000	      0.10746800	      0.17551300	      0.66119900	     -0.15388300	     -0.13845900	     -0.54338200
      0.66041667	     -0.94639600	      0.10751900	      0.17572700	      0.66112900	     -0.15384400	     -0.13864100	     -0.54256600
      0.66250000	     -0.94654000	      0.10745600	      0.17551300	      0.66104600	     -0.15401400	     -0.13833000	     -0.54472000
      0.66458333	     -0.94632800	      0.10744500	      0.17547000	      0.66150000	     -0.15404500	     -0.13861000	     -0.54237600
      0.66666667	     -0.94657100	      0.10752100	      0.17558500	      0.66112800	     -0.15378200	     -0.13842600	     -0.54351100
      0.66875000	     -0.94639400	      0.10754100	      0.17569400	      0.66135700	     -0.15386400	     -0.13859000	     -0.54176100
      0.67083333	     -0.94649300	      0.10772400	      0.17591200	      0.66158500	     -0.15408200	     -0.13857000	     -0.54386600
      0.67291667	     -0.94657300	      0.10754500	      0.17572900	      0.66131000	     -0.15365500	     -0.13856300	     -0.54182300
      0.67500000	     -0.94647900	      0.10760600	      0.17571900	      0.66161800	     -0.15374400	     -0.13841900	     -0.54216000
      0.67708333	     -0.94649900	      0.10760100	      0.17576400	      0.66162000	     -0.15378800	     -0.13852200	     -0.54240400
      0.67916667	     -0.94662400	      0.10757500	      0.17558400	      0.66151000	     -0.15360100	     -0.13826200	     -0.54230100
      0.68125000	     -0.94650900	      0.10778700	      0.17607000	      0.66190400	     -0.15377500	     -0.13856500	     -0.54161700
      0.68333333	     -0.94665700	      0.10771200	      0.17585900	      0.66168500	     -0.15338200	     -0.13823800	     -0.54179300
      0.68541667	     -0.94650500	      0.10770400	      0.17607600	      0.66194200	     -0.15379900	     -0.13867100	     -0.54107200
      0.68750000	     -0.94662700	      0.10786900	      0.17609800	      0.66206900	     -0.15382600	     -0.13845300	     -0.54324200
      0.68958333	     -0.94660300	      0.10772900	      0.17611500	      0.66202800	     -0.15364400	     -0.13861200	     -0.54209300
      0.69166667	     -0.94649000	      0.10777200	      0.17623100	      0.66239300	     -0.15368100	     -0.13876100	     -0.54157900
      0.69375000	     -0.94644200	      0.10780400	      0.17602400	      0.66251100	     -0.15372100	     -0.13855500	     -0.54235500
      0.69583333	     -0.94663400	      0.10778700	      0.17623700	      0.66228100	     -0.15357400	     -0.13863000	     -0.54189300
      0.69791667	     -0.94641000	      0.10784700	      0.17637200	      0.66276600	     -0.15367300	     -0.13882600	     -0.54181400
      0.70000000	     -0.94662000	      0.10782600	      0.17635100	      0.66259300	     -0.15356600	     -0.13861300	     -0.54307000
      0.70208333	     -0.94650100	      0.10795500	      0.17683700	      0.66260500	     -0.15346000	     -0.13911400	     -0.54101800
      0.70416667	     -0.94647300	      0.10809800	      0.17692200	      0.66304700	     -0.15379000	     -0.13900300	     -0.54365600
      0.70625000	     -0.94656600	      0.10793700	      0.17662500	      0.66274800	     -0.15341600	     -0.13893800	     -0.54244600
      0.70833333	     -0.94643300	      0.10798500	      0.17682300	      0.66301900	     -0.15329800	     -0.13902700	     -0.54172800
      0.71041667	     -0.94644800	      0.10801700	      0.17677700	      0.66301000	     -0.15321900	     -0.13901100	     -0.54198600
      0.71250000	     -0.94662500	      0.10803700	      0.17685900	      0.66276900	     -0.15297200	     -0.13890700	     -0.54219900
      0.71458333	     -0.94649700	      0.10820900	      0.17734800	      0.66310700	     -0.15313900	     -0.13933400	     -0.54182700
      0.71666667	     -0.94660100	      0.10798300	      0.17679700	      0.66294700	     -0.15276000	     -0.13899500	     -0.54140800
      0.71875000	     -0.94652300	      0.10809300	      0.17725600	      0.66298600	     -0.15283500	     -0.13948900	     -0.54073900
